<svg id="logo" data-name="logo" xmlns="http://www.w3.org/2000/svg" viewBox="0 0 1399 1362"><defs><style>.cls-1{fill:#2d97d9;}</style></defs><title>Logo Skript MC</title><path class="cls-1" d="M277.5,672s569,64,780-208c0,0-36.5,279.5,116.5,281.5,0,0,17,61,0,95,0,0-28.5,17.5-50.5,14.5,0,0,141.5,29.5,207,56,0,0,208.5-435.5-102.5-664.5,0,0,2-69,40-100,0,0-49,20-74,64,0,0-108-202-534-210-537-1-627,520-627,520s-25,174,57,367l134-11S270,708.5,277.5,672Z"/><path class="cls-1" d="M306,864.5s126-49,230-52c0,0-4-45-45-77,0,0-173,39-202,75C289,810.5,296,860.5,306,864.5Z"/><path class="cls-1" d="M1124.31,826.69s-130.53-35.19-234.25-27c0,0-.86-45.17,36.47-81.39,0,0,176.19,20.2,208.88,52.88C1135.41,771.18,1133.82,821.64,1124.31,826.69Z"/><path class="cls-1" d="M1407,974S988,825,842,871c0,0-68,27-86,75H651.5c-18-48-86-75-86-75C419.5,825,.5,974,.5,974s-2,59,12,92c0,0,51-13,76-10,0,0,110,249,136,267,0,0,51,76,168,15,88.51-46.15,170.73-83.71,205.52-99.27a76.38,76.38,0,0,0,38.51-38.3c12-26.69,26.05-75.7,33-164.43H738c6.92,88.73,21,137.74,33,164.43a76.38,76.38,0,0,0,38.51,38.3c34.79,15.56,117,53.12,205.52,99.27,117,61,168-15,168-15,26-18,136-267,136-267,25-3,76,10,76,10C1409,1033,1407,974,1407,974ZM607.23,1182.3a46,46,0,0,1-3.83,9,45,45,0,0,1-9.32,11.36,56,56,0,0,1-13.49,8.74L355.5,1317s-58,36-107-62c-42-95-103-207-59-237,0,0,179.07-121.63,347-91C668,951,625.78,1123.36,607.23,1182.3ZM1159,1255c-49,98-107,62-107,62L826.91,1211.35a56,56,0,0,1-13.49-8.74,45,45,0,0,1-9.32-11.36,46,46,0,0,1-3.83-9C781.72,1123.36,739.52,951,871,927c167.93-30.63,347,91,347,91C1262,1048,1201,1160,1159,1255Z"/><path class="cls-1" d="M1222,223.5s14-14,50,6c0,0-44,1-53.2,33.27Z"/></svg>